HIERARCHY
ROOT hip
{
	OFFSET 0.000000 0.000000 0.000000
	CHANNELS 6 Xposition Yposition Zposition Zrotation Yrotation Xrotation 
	JOINT lhipjoint
	{
		OFFSET 0.000000 0.000000 0.000000
		CHANNELS 3 Zrotation Yrotation Xrotation
		JOINT lfemur
		{
			OFFSET 1.363060 -1.794630 0.839290
			CHANNELS 3 Zrotation Yrotation Xrotation
			JOINT ltibia
			{
				OFFSET 2.448110 -6.726130 0.000000
				CHANNELS 3 Zrotation Yrotation Xrotation
				JOINT lfoot
				{
					OFFSET 2.562200 -7.039590 0.000000
					CHANNELS 3 Zrotation Yrotation Xrotation
					JOINT ltoes
					{
						OFFSET 0.157640 -0.433110 2.322550
						CHANNELS 3 Zrotation Yrotation Xrotation
						End Site
						{
							OFFSET 0.000000 0.000000 0.000000
						}
					}
				}
			}
		}
	}
	JOINT rhipjoint
	{
		OFFSET 0.000000 0.000000 0.000000
		CHANNELS 3 Zrotation Yrotation Xrotation
		JOINT rfemur
		{
			OFFSET -1.305520 -1.794630 0.839290
			CHANNELS 3 Zrotation Yrotation Xrotation
			JOINT rtibia
			{
				OFFSET -2.542530 -6.985550 0.000000
				CHANNELS 3 Zrotation Yrotation Xrotation
				JOINT rfoot
				{
					OFFSET -2.568260 -7.056230 0.000000
					CHANNELS 3 Zrotation Yrotation Xrotation
					JOINT rtoes
					{
						OFFSET -0.164730 -0.452590 2.363150
						CHANNELS 3 Zrotation Yrotation Xrotation
						End Site
						{
							OFFSET 0.000000 0.000000 0.000000
						}
					}
				}
			}
		}
	}
	JOINT lowerback
	{
		OFFSET 0.000000 0.000000 0.000000
		CHANNELS 3 Zrotation Yrotation Xrotation
		JOINT upperback
		{
			OFFSET 0.028270 2.035590 -0.193380
			CHANNELS 3 Zrotation Yrotation Xrotation
			JOINT thorax
			{
				OFFSET 0.056720 2.048850 -0.042750
				CHANNELS 3 Zrotation Yrotation Xrotation
				JOINT lowerneck
				{
					OFFSET 0.000000 0.000000 0.000000
					CHANNELS 3 Zrotation Yrotation Xrotation
					JOINT upperneck
					{
						OFFSET -0.054170 1.746240 0.172020
						CHANNELS 3 Zrotation Yrotation Xrotation
						JOINT head
						{
							OFFSET 0.104070 1.761360 -0.123970
							CHANNELS 3 Zrotation Yrotation Xrotation
							End Site
							{
								OFFSET 0.000000 0.000000 0.000000
							}
						}
					}
				}
				JOINT lclavicle
				{
					OFFSET 0.000000 0.000000 0.000000
					CHANNELS 3 Zrotation Yrotation Xrotation
					JOINT lhumerus
					{
						OFFSET 3.362410 1.200890 -0.311210
						CHANNELS 3 Zrotation Yrotation Xrotation
						JOINT lradius
						{
							OFFSET 4.983000 -0.000000 -0.000000
							CHANNELS 3 Zrotation Yrotation Xrotation
							JOINT lwrist
							{
								OFFSET 3.483560 -0.000000 -0.000000
								CHANNELS 3 Zrotation Yrotation Xrotation
								JOINT lhand
								{
									OFFSET 0.000000 0.000000 0.000000
									CHANNELS 3 Zrotation Yrotation Xrotation
									JOINT lfingers
									{
										OFFSET 0.715260 -0.000000 -0.000000
										CHANNELS 3 Zrotation Yrotation Xrotation
										End Site
										{
											OFFSET 0.000000 0.000000 0.000000
										}
									}
								}
								JOINT lthumb
								{
									OFFSET 0.000000 0.000000 0.000000
									CHANNELS 3 Zrotation Yrotation Xrotation
									End Site
									{
										OFFSET 0.000000 0.000000 0.000000
									}
								}
							}
						}
					}
				}
				JOINT rclavicle
				{
					OFFSET 0.000000 0.000000 0.000000
					CHANNELS 3 Zrotation Yrotation Xrotation
					JOINT rhumerus
					{
						OFFSET -3.136600 1.374050 -0.404650
						CHANNELS 3 Zrotation Yrotation Xrotation
						JOINT rradius
						{
							OFFSET -5.241900 -0.000000 -0.000000
							CHANNELS 3 Zrotation Yrotation Xrotation
							JOINT rwrist
							{
								OFFSET -3.444170 -0.000000 -0.000000
								CHANNELS 3 Zrotation Yrotation Xrotation
								JOINT rhand
								{
									OFFSET 0.000000 0.000000 0.000000
									CHANNELS 3 Zrotation Yrotation Xrotation
									JOINT rfingers
									{
										OFFSET -0.622530 -0.000000 -0.000000
										CHANNELS 3 Zrotation Yrotation Xrotation
										End Site
										{
											OFFSET 0.000000 0.000000 0.000000
										}
									}
								}
								JOINT rthumb
								{
									OFFSET 0.000000 0.000000 0.000000
									CHANNELS 3 Zrotation Yrotation Xrotation
									End Site
									{
										OFFSET 0.000000 0.000000 0.000000
									}
								}
							}
						}
					}
				}
			}
		}
	}
}
MOTION
Frames: 9
Frame Time: 0.008333
-0.275883 16.604644 4.420515 -2.435932 15.895900 -3.323869 4.326910 2.446467 1.230414 -19.774716 -25.636598 -23.538103 2.528158 9.156503 28.369701 -1.907029 9.886311 6.862419 0.017900 -0.863800 -2.374200 -5.090708 -1.782208 -3.723621 28.008253 -9.811287 33.474209 -0.602597 1.285182 -0.968554 -0.151083 -1.660853 -10.414085 -0.396400 4.042300 -11.195700 2.573515 0.082588 10.999397 0.327898 0.323657 -3.738593 -2.530448 0.387815 -2.416769 -5.589119 -1.615664 -10.768362 3.899413 -1.598776 19.419335 0.319000 -0.295300 4.830500 5.908313 -10.300924 2.183317 -95.152580 3.795391 -26.937023 5.624346 -18.557603 -1.676995 0.322135 1.346920 39.284604 10.034631 -2.810189 -0.763300 -7.125000 0.000000 0.000000 -12.032800 25.814000 5.711900 -1.877794 11.714308 4.534115 80.875572 -3.847268 22.180296 -21.835596 36.145740 -5.717412 -0.946937 -4.284340 9.504989 -20.781622 6.522975 -4.207900 7.125000 0.000000 0.000000 4.524400 -18.005900 2.913300 
-0.230419 16.589554 4.573256 -2.236907 16.013258 -3.389051 4.321040 2.436857 1.227219 -20.312468 -25.050908 -23.547978 2.640384 9.371908 29.094114 -1.680480 9.236755 7.748407 0.034800 -1.203900 -3.310000 -5.037433 -1.747090 -3.736088 27.282299 -10.553324 33.857001 -0.575738 1.272920 -0.974357 -0.085874 -1.597368 -9.263914 -0.393100 4.025600 -11.148700 2.224695 0.158053 11.094653 0.307603 0.394148 -3.729690 -2.468386 0.427433 -2.403878 -5.612282 -1.686772 -10.809898 3.952445 -1.706255 19.433531 0.325600 -0.345300 4.857200 5.910951 -10.311057 2.164063 -95.179151 3.735023 -27.516599 5.580162 -18.369851 -1.660461 0.307134 1.331902 39.687762 9.929232 -2.789927 -0.747800 -7.125000 0.000000 0.000000 -12.107800 25.860900 5.735500 -1.852067 11.726949 4.555866 81.265939 -4.141151 21.806654 -22.690044 36.809098 -6.004153 -0.890510 -4.364948 8.877856 -20.987208 6.484267 -4.274600 7.125000 0.000000 0.000000 4.363100 -17.942700 2.815000 
-0.184567 16.576108 4.724644 -2.012458 16.149973 -3.445471 4.320412 2.427923 1.222559 -20.867045 -24.504531 -23.514063 2.744688 9.569963 29.786481 -1.439327 8.486238 8.432424 0.050100 -1.445200 -3.974600 -4.982305 -1.712564 -3.746053 26.517235 -11.289748 34.215735 -0.550520 1.260143 -0.980815 -0.001385 -1.660631 -7.959588 -0.385200 3.985800 -11.036800 1.867815 0.232837 11.192793 0.282724 0.461624 -3.719230 -2.453121 0.465900 -2.384829 -5.597309 -1.759946 -10.859352 4.009897 -1.820813 19.442608 0.325300 -0.396600 4.884500 5.913046 -10.310345 2.141059 -95.166475 3.603493 -28.220850 5.523580 -18.110498 -1.637808 0.294662 1.301184 40.232053 9.863147 -2.823131 -0.742100 -7.125000 0.000000 0.000000 -12.156800 25.866400 5.758100 -1.835552 11.735271 4.575304 81.701417 -4.395958 21.398092 -23.489841 37.453595 -6.295095 -0.847292 -4.442493 8.175296 -21.258538 6.553525 -4.394300 7.125000 0.000000 0.000000 4.173500 -17.756200 2.709100 
-0.138038 16.564597 4.876902 -1.559194 16.317964 -3.481570 4.324321 2.419700 1.219734 -21.690195 -23.996158 -23.334447 2.838581 9.742520 30.426731 -1.200896 7.687084 8.922125 0.064700 -1.641000 -4.514500 -4.912827 -1.662922 -3.760113 25.466704 -12.028513 34.618552 -0.528057 1.244871 -0.993347 0.102314 -1.865169 -6.452030 -0.354500 3.825200 -10.585300 1.227962 0.317859 11.346955 0.252209 0.517961 -3.710978 -2.329167 0.498683 -2.403783 -5.609861 -1.842309 -10.887534 4.058831 -1.942296 19.443741 0.310700 -0.450400 4.908700 5.927877 -10.318115 2.109214 -95.163089 3.462472 -29.040661 5.421669 -17.787466 -1.605803 0.280072 1.253015 40.871009 9.778628 -2.982095 -0.754700 -7.125000 0.000000 0.000000 -12.215500 25.762800 5.817500 -1.814560 11.754792 4.599955 82.096941 -4.675517 21.052948 -24.293244 38.068520 -6.593622 -0.795497 -4.520108 7.294419 -21.548352 6.590771 -4.506400 7.125000 0.000000 0.000000 3.975600 -17.601300 2.593500 
-0.091219 16.556761 5.028870 -1.095747 16.414155 -3.490373 4.410032 2.474897 1.212798 -22.585008 -23.510218 -23.094217 2.922608 9.901464 31.017304 -0.979097 6.900026 9.220919 0.074200 -1.757800 -4.836700 -5.052198 -1.777805 -3.744645 25.485928 -11.588751 31.420015 -0.794497 -1.152199 5.709334 -0.172889 -0.383911 -7.776570 -0.315600 3.611500 -9.986100 0.560133 0.430046 11.479329 0.213319 0.596841 -3.699439 -2.214134 0.557060 -2.397912 -5.631096 -1.926728 -10.955138 4.128903 -2.069299 19.450275 0.308600 -0.506800 4.948400 5.930400 -10.304390 2.077595 -95.080017 3.292053 -29.711793 5.307486 -17.467502 -1.574763 0.268315 1.212090 41.396181 9.696111 -3.072679 -0.756200 -7.125000 0.000000 0.000000 -12.278700 25.718200 5.862000 -1.796889 11.776254 4.622823 82.533481 -4.928110 20.703540 -25.130758 38.714022 -6.906755 -0.740375 -4.595941 6.389165 -21.792458 6.647921 -4.615900 7.125000 0.000000 0.000000 3.811600 -17.431300 2.500300 
-0.044110 16.550667 5.177549 -0.689275 16.539280 -3.551109 4.466786 2.514987 1.201689 -23.406911 -22.962871 -22.801466 3.001502 10.043243 31.569578 -0.761271 6.090504 9.425188 0.082600 -1.853600 -5.101300 -5.124912 -1.852648 -3.717209 25.175716 -11.406537 29.158348 -1.146855 -2.878509 10.592740 -0.293147 0.466109 -7.976903 -0.284200 3.428500 -9.474200 -0.050040 0.525613 11.686898 0.181134 0.657993 -3.691725 -2.094259 0.601405 -2.461456 -5.672230 -2.018656 -10.925154 4.213385 -2.214604 19.715473 0.297100 -0.564700 4.574500 5.926604 -10.313953 2.051873 -95.043954 3.197405 -30.236500 5.249957 -17.258579 -1.555371 0.254700 1.184949 41.696985 9.597810 -3.173213 -0.760700 -7.125000 0.000000 0.000000 -12.347200 25.652200 5.915700 -1.775267 11.816551 4.650966 82.960769 -5.235148 20.370092 -26.007237 39.380920 -7.243989 -0.685793 -4.671387 5.479796 -22.064876 6.714944 -4.737800 7.125000 0.000000 0.000000 3.630800 -17.245000 2.396000 
0.003289 16.547088 5.325551 -0.285042 16.684456 -3.619592 4.507197 2.546426 1.186127 -24.211515 -22.320995 -22.487031 3.078281 10.176402 32.109138 -0.537714 5.219918 9.526041 0.085500 -1.885500 -5.189300 -5.157773 -1.901268 -3.690345 24.515595 -11.598560 27.345402 -1.504232 -4.219229 14.436336 -0.338935 1.141813 -7.339290 -0.254200 3.244200 -8.959500 -0.666260 0.601614 11.894249 0.154257 0.691505 -3.681694 -1.942833 0.631424 -2.492072 -5.745619 -2.084632 -10.959364 4.287219 -2.316029 19.735354 0.312500 -0.611000 4.607200 5.922991 -10.323043 2.026329 -95.021101 3.089886 -30.628743 5.194971 -17.095989 -1.540014 0.240240 1.169731 41.814178 9.472674 -3.233485 -0.758000 -7.125000 0.000000 0.000000 -12.434600 25.616200 5.970200 -1.745284 11.838498 4.679103 83.332021 -5.523771 20.146884 -26.931203 40.073505 -7.605097 -0.626889 -4.743715 4.525365 -22.350573 6.770981 -4.859200 7.125000 0.000000 0.000000 3.442000 -17.070100 2.284200 
0.049914 16.545057 5.473359 0.129280 16.887786 -3.689694 4.541387 2.576999 1.167658 -25.020929 -21.595004 -22.158691 3.149710 10.300912 32.633111 -0.289775 4.226858 9.586231 0.085300 -1.883500 -5.183900 -5.173814 -1.938988 -3.659251 23.749700 -11.876539 25.658465 -1.893538 -5.418368 17.936657 -0.328242 1.535846 -6.240045 -0.217700 3.003900 -8.289600 -1.297879 0.651195 12.098963 0.131115 0.687237 -3.673230 -1.791898 0.639162 -2.532488 -5.723134 -2.152777 -10.970790 4.316553 -2.413727 19.748076 0.275800 -0.649200 4.627300 5.934405 -10.321956 1.997915 -95.023625 2.975637 -31.164293 5.152809 -16.910631 -1.523175 0.222048 1.144945 42.088315 9.350260 -3.355398 -0.764100 -7.125000 0.000000 0.000000 -12.515900 25.530500 6.036800 -1.701734 11.871665 4.712481 83.677266 -5.800936 19.986636 -27.855768 40.761512 -7.974006 -0.574069 -4.808198 3.588305 -22.637290 6.879374 -4.999500 7.125000 0.000000 0.000000 3.260600 -16.845200 2.179400 
0.100409 16.546217 5.622328 0.516431 17.143698 -3.777333 4.572118 2.605920 1.143849 -25.819819 -20.886461 -21.746605 3.217442 10.411720 33.122993 -0.049696 3.235959 9.604921 0.075400 -1.771700 -4.875100 -5.179900 -1.972251 -3.622457 22.948715 -12.168372 24.002064 -2.327467 -6.552127 21.318941 -0.273575 1.615061 -4.719131 -0.185400 2.773200 -7.647800 -1.851162 0.676943 12.281298 0.110270 0.658263 -3.661583 -1.678162 0.632904 -2.531537 -5.678005 -2.234449 -11.036696 4.330955 -2.520374 19.816010 0.232700 -0.690600 4.682000 5.938264 -10.306614 1.972149 -95.023772 2.876855 -31.493176 5.114261 -16.784618 -1.508792 0.201056 1.132137 42.138623 9.172273 -3.442337 -0.761400 -7.125000 0.000000 0.000000 -12.636200 25.470600 6.115700 -1.652741 11.897092 4.746613 83.965204 -6.066140 19.880083 -28.791727 41.461835 -8.364013 -0.522612 -4.868721 2.695077 -22.973566 6.977214 -5.150000 7.125000 0.000000 0.000000 3.044700 -16.626200 2.049200 
